<?xml version="1.0" encoding="us-ascii" standalone="no"?><svg xmlns="http://www.w3.org/2000/svg" xmlns:xlink="http://www.w3.org/1999/xlink" contentStyleType="text/css" height="715px" preserveAspectRatio="none" style="width:390px;height:715px;background:#FFFFFF;" version="1.1" viewBox="0 0 390 715" width="390px" zoomAndPan="magnify"><defs/><g><!--cluster mediator_pattern--><g id="cluster_mediator_pattern"><path d="M8.5,6 L152.5,6 A3.75,3.75 0 0 1 155,8.5 L162,28.2969 L380.5,28.2969 A2.5,2.5 0 0 1 383,30.7969 L383,705.5 A2.5,2.5 0 0 1 380.5,708 L8.5,708 A2.5,2.5 0 0 1 6,705.5 L6,8.5 A2.5,2.5 0 0 1 8.5,6 " fill="none" style="stroke:#000000;stroke-width:1.5;"/><line style="stroke:#000000;stroke-width:1.5;" x1="6" x2="162" y1="28.2969" y2="28.2969"/><text fill="#000000" font-family="sans-serif" font-size="14" font-weight="bold" lengthAdjust="spacing" textLength="143" x="10" y="20.9951">mediator_pattern</text></g><!--cluster mediator_pattern.dart--><g id="cluster_mediator_pattern.dart"><path d="M32.5,49 L216.5,49 A3.75,3.75 0 0 1 219,51.5 L226,71.2969 L356.5,71.2969 A2.5,2.5 0 0 1 359,73.7969 L359,681.5 A2.5,2.5 0 0 1 356.5,684 L32.5,684 A2.5,2.5 0 0 1 30,681.5 L30,51.5 A2.5,2.5 0 0 1 32.5,49 " fill="none" style="stroke:#000000;stroke-width:1.5;"/><line style="stroke:#000000;stroke-width:1.5;" x1="30" x2="226" y1="71.2969" y2="71.2969"/><text fill="#000000" font-family="sans-serif" font-size="14" font-weight="bold" lengthAdjust="spacing" textLength="183" x="34" y="63.9951">mediator_pattern.dart</text></g><!--class Colleague--><g id="elem_Colleague"><rect codeLine="3" fill="#F1F1F1" height="80.5938" id="Colleague" rx="2.5" ry="2.5" style="stroke:#181818;stroke-width:0.5;" width="123" x="166.5" y="84"/><ellipse cx="190.05" cy="100" fill="#A9DCDF" rx="11" ry="11" style="stroke:#181818;stroke-width:1.0;"/><path d="M192.1281,101.8125 L192.5188,102.7969 L192.1281,102.7969 C191.675,102.7969 191.5656,102.8125 191.4094,102.9219 C191.1594,103.0781 191.0031,103.3594 191.0031,103.6563 C191.0031,103.9219 191.1438,104.1719 191.3625,104.3281 C191.5031,104.4531 191.7063,104.5 192.1281,104.5 L194.4875,104.5 C194.8469,104.5 195.0656,104.4688 195.2063,104.375 C195.4563,104.2344 195.6125,103.9375 195.6125,103.6563 C195.6125,103.375 195.4719,103.125 195.2531,102.9688 C195.0813,102.8281 194.925,102.7969 194.4563,102.7969 L191.0656,94.5938 L187.3938,94.5938 C186.9406,94.5938 186.8156,94.6094 186.6594,94.7031 C186.4094,94.875 186.2531,95.1563 186.2531,95.4375 C186.2531,95.7188 186.3938,95.9688 186.6125,96.1406 C186.7844,96.25 186.9563,96.2813 187.3938,96.2813 L188.4719,96.2813 L185.8313,102.7969 C185.4094,102.7969 185.2531,102.8125 185.0969,102.9219 C184.8469,103.0781 184.6906,103.3594 184.6906,103.6563 C184.6906,104.2188 185.0656,104.5 185.8156,104.5 L188.0813,104.5 C188.4406,104.5 188.6594,104.4688 188.7844,104.375 C189.05,104.2344 189.1906,103.9375 189.1906,103.6563 C189.1906,103.375 189.0656,103.125 188.8469,102.9531 C188.675,102.8281 188.5344,102.7969 188.0813,102.7969 L187.6906,102.7969 L188.0813,101.8125 L192.1281,101.8125 Z M191.425,100.1094 L188.7531,100.1094 L190.0969,96.8438 L191.425,100.1094 Z " fill="#000000"/><text fill="#000000" font-family="sans-serif" font-size="14" font-style="italic" lengthAdjust="spacing" textLength="72" x="205.95" y="104.8467">Colleague</text><line style="stroke:#181818;stroke-width:0.5;" x1="167.5" x2="288.5" y1="116" y2="116"/><line style="stroke:#181818;stroke-width:0.5;" x1="167.5" x2="288.5" y1="124" y2="124"/><ellipse cx="177.5" cy="137.6484" fill="#84BE84" rx="3" ry="3" style="stroke:#038048;stroke-width:1.0;"/><text fill="#000000" font-family="sans-serif" font-size="14" lengthAdjust="spacing" textLength="78" x="186.5" y="140.9951">void send()</text><ellipse cx="177.5" cy="153.9453" fill="#84BE84" rx="3" ry="3" style="stroke:#038048;stroke-width:1.0;"/><text fill="#000000" font-family="sans-serif" font-size="14" lengthAdjust="spacing" textLength="97" x="186.5" y="157.292">void receive()</text></g><!--class ConcreteColleague1--><g id="elem_ConcreteColleague1"><rect codeLine="8" fill="#F1F1F1" height="96.8906" id="ConcreteColleague1" rx="2.5" ry="2.5" style="stroke:#181818;stroke-width:0.5;" width="178" x="87" y="225"/><ellipse cx="102" cy="241" fill="#ADD1B2" rx="11" ry="11" style="stroke:#181818;stroke-width:1.0;"/><path d="M104.3438,236.6719 C103.4063,236.2344 102.8125,236.0938 101.9375,236.0938 C99.3125,236.0938 97.3125,238.1719 97.3125,240.8906 L97.3125,242.0156 C97.3125,244.5938 99.4219,246.4844 102.3125,246.4844 C103.5313,246.4844 104.6875,246.1875 105.4375,245.6406 C106.0156,245.2344 106.3438,244.7813 106.3438,244.3906 C106.3438,243.9375 105.9531,243.5469 105.4844,243.5469 C105.2656,243.5469 105.0625,243.625 104.875,243.8125 C104.4219,244.2969 104.4219,244.2969 104.2344,244.3906 C103.8125,244.6563 103.125,244.7813 102.3594,244.7813 C100.3125,244.7813 99.0156,243.6875 99.0156,241.9844 L99.0156,240.8906 C99.0156,239.1094 100.2656,237.7969 102,237.7969 C102.5781,237.7969 103.1875,237.9531 103.6563,238.2031 C104.1406,238.4844 104.3125,238.7031 104.4063,239.1094 C104.4688,239.5156 104.5,239.6406 104.6406,239.7656 C104.7813,239.9063 105.0156,240.0156 105.2344,240.0156 C105.5,240.0156 105.7656,239.875 105.9375,239.6563 C106.0469,239.5 106.0781,239.3125 106.0781,238.8906 L106.0781,237.4688 C106.0781,237.0313 106.0625,236.9063 105.9688,236.75 C105.8125,236.4844 105.5313,236.3438 105.2344,236.3438 C104.9375,236.3438 104.7344,236.4375 104.5156,236.75 L104.3438,236.6719 Z " fill="#000000"/><text fill="#000000" font-family="sans-serif" font-size="14" lengthAdjust="spacing" textLength="146" x="116" y="245.8467">ConcreteColleague1</text><line style="stroke:#181818;stroke-width:0.5;" x1="88" x2="264" y1="257" y2="257"/><rect fill="none" height="6" style="stroke:#C82930;stroke-width:1.0;" width="6" x="95" y="267.6484"/><text fill="#000000" font-family="sans-serif" font-size="14" lengthAdjust="spacing" textLength="141" x="107" y="273.9951">Mediator _mediator</text><line style="stroke:#181818;stroke-width:0.5;" x1="88" x2="264" y1="281.2969" y2="281.2969"/><ellipse cx="98" cy="294.9453" fill="#84BE84" rx="3" ry="3" style="stroke:#038048;stroke-width:1.0;"/><text fill="#000000" font-family="sans-serif" font-size="14" lengthAdjust="spacing" textLength="78" x="107" y="298.292">void send()</text><ellipse cx="98" cy="311.2422" fill="#84BE84" rx="3" ry="3" style="stroke:#038048;stroke-width:1.0;"/><text fill="#000000" font-family="sans-serif" font-size="14" lengthAdjust="spacing" textLength="97" x="107" y="314.5889">void receive()</text></g><!--class Mediator--><g id="elem_Mediator"><rect codeLine="26" fill="#F1F1F1" height="129.4844" id="Mediator" rx="2.5" ry="2.5" style="stroke:#181818;stroke-width:0.5;" width="260" x="46" y="382"/><ellipse cx="139.75" cy="398" fill="#ADD1B2" rx="11" ry="11" style="stroke:#181818;stroke-width:1.0;"/><path d="M142.0938,393.6719 C141.1563,393.2344 140.5625,393.0938 139.6875,393.0938 C137.0625,393.0938 135.0625,395.1719 135.0625,397.8906 L135.0625,399.0156 C135.0625,401.5938 137.1719,403.4844 140.0625,403.4844 C141.2813,403.4844 142.4375,403.1875 143.1875,402.6406 C143.7656,402.2344 144.0938,401.7813 144.0938,401.3906 C144.0938,400.9375 143.7031,400.5469 143.2344,400.5469 C143.0156,400.5469 142.8125,400.625 142.625,400.8125 C142.1719,401.2969 142.1719,401.2969 141.9844,401.3906 C141.5625,401.6563 140.875,401.7813 140.1094,401.7813 C138.0625,401.7813 136.7656,400.6875 136.7656,398.9844 L136.7656,397.8906 C136.7656,396.1094 138.0156,394.7969 139.75,394.7969 C140.3281,394.7969 140.9375,394.9531 141.4063,395.2031 C141.8906,395.4844 142.0625,395.7031 142.1563,396.1094 C142.2188,396.5156 142.25,396.6406 142.3906,396.7656 C142.5313,396.9063 142.7656,397.0156 142.9844,397.0156 C143.25,397.0156 143.5156,396.875 143.6875,396.6563 C143.7969,396.5 143.8281,396.3125 143.8281,395.8906 L143.8281,394.4688 C143.8281,394.0313 143.8125,393.9063 143.7188,393.75 C143.5625,393.4844 143.2813,393.3438 142.9844,393.3438 C142.6875,393.3438 142.4844,393.4375 142.2656,393.75 L142.0938,393.6719 Z " fill="#000000"/><text fill="#000000" font-family="sans-serif" font-size="14" lengthAdjust="spacing" textLength="64" x="160.25" y="402.8467">Mediator</text><line style="stroke:#181818;stroke-width:0.5;" x1="47" x2="305" y1="414" y2="414"/><rect fill="none" height="6" style="stroke:#C82930;stroke-width:1.0;" width="6" x="54" y="424.6484"/><text fill="#000000" font-family="sans-serif" font-size="14" lengthAdjust="spacing" textLength="234" x="66" y="430.9951">ConcreteColleague1 _colleague1</text><rect fill="none" height="6" style="stroke:#C82930;stroke-width:1.0;" width="6" x="54" y="440.9453"/><text fill="#000000" font-family="sans-serif" font-size="14" lengthAdjust="spacing" textLength="232" x="66" y="447.292">ConcreteColleague2 _colleague2</text><ellipse cx="57" cy="460.2422" fill="none" rx="3" ry="3" style="stroke:#038048;stroke-width:1.0;"/><text fill="#000000" font-family="sans-serif" font-size="14" lengthAdjust="spacing" textLength="227" x="66" y="463.5889">ConcreteColleague1 colleague1</text><ellipse cx="57" cy="476.5391" fill="none" rx="3" ry="3" style="stroke:#038048;stroke-width:1.0;"/><text fill="#000000" font-family="sans-serif" font-size="14" lengthAdjust="spacing" textLength="225" x="66" y="479.8857">ConcreteColleague2 colleague2</text><line style="stroke:#181818;stroke-width:0.5;" x1="47" x2="305" y1="487.1875" y2="487.1875"/><ellipse cx="57" cy="500.8359" fill="#84BE84" rx="3" ry="3" style="stroke:#038048;stroke-width:1.0;"/><text fill="#000000" font-family="sans-serif" font-size="14" lengthAdjust="spacing" textLength="78" x="66" y="504.1826">void send()</text></g><!--class ConcreteColleague2--><g id="elem_ConcreteColleague2"><rect codeLine="17" fill="#F1F1F1" height="96.8906" id="ConcreteColleague2" rx="2.5" ry="2.5" style="stroke:#181818;stroke-width:0.5;" width="177" x="87.5" y="571"/><ellipse cx="102.5" cy="587" fill="#ADD1B2" rx="11" ry="11" style="stroke:#181818;stroke-width:1.0;"/><path d="M104.8438,582.6719 C103.9063,582.2344 103.3125,582.0938 102.4375,582.0938 C99.8125,582.0938 97.8125,584.1719 97.8125,586.8906 L97.8125,588.0156 C97.8125,590.5938 99.9219,592.4844 102.8125,592.4844 C104.0313,592.4844 105.1875,592.1875 105.9375,591.6406 C106.5156,591.2344 106.8438,590.7813 106.8438,590.3906 C106.8438,589.9375 106.4531,589.5469 105.9844,589.5469 C105.7656,589.5469 105.5625,589.625 105.375,589.8125 C104.9219,590.2969 104.9219,590.2969 104.7344,590.3906 C104.3125,590.6563 103.625,590.7813 102.8594,590.7813 C100.8125,590.7813 99.5156,589.6875 99.5156,587.9844 L99.5156,586.8906 C99.5156,585.1094 100.7656,583.7969 102.5,583.7969 C103.0781,583.7969 103.6875,583.9531 104.1563,584.2031 C104.6406,584.4844 104.8125,584.7031 104.9063,585.1094 C104.9688,585.5156 105,585.6406 105.1406,585.7656 C105.2813,585.9063 105.5156,586.0156 105.7344,586.0156 C106,586.0156 106.2656,585.875 106.4375,585.6563 C106.5469,585.5 106.5781,585.3125 106.5781,584.8906 L106.5781,583.4688 C106.5781,583.0313 106.5625,582.9063 106.4688,582.75 C106.3125,582.4844 106.0313,582.3438 105.7344,582.3438 C105.4375,582.3438 105.2344,582.4375 105.0156,582.75 L104.8438,582.6719 Z " fill="#000000"/><text fill="#000000" font-family="sans-serif" font-size="14" lengthAdjust="spacing" textLength="145" x="116.5" y="591.8467">ConcreteColleague2</text><line style="stroke:#181818;stroke-width:0.5;" x1="88.5" x2="263.5" y1="603" y2="603"/><rect fill="none" height="6" style="stroke:#C82930;stroke-width:1.0;" width="6" x="95.5" y="613.6484"/><text fill="#000000" font-family="sans-serif" font-size="14" lengthAdjust="spacing" textLength="141" x="107.5" y="619.9951">Mediator _mediator</text><line style="stroke:#181818;stroke-width:0.5;" x1="88.5" x2="263.5" y1="627.2969" y2="627.2969"/><ellipse cx="98.5" cy="640.9453" fill="#84BE84" rx="3" ry="3" style="stroke:#038048;stroke-width:1.0;"/><text fill="#000000" font-family="sans-serif" font-size="14" lengthAdjust="spacing" textLength="78" x="107.5" y="644.292">void send()</text><ellipse cx="98.5" cy="657.2422" fill="#84BE84" rx="3" ry="3" style="stroke:#038048;stroke-width:1.0;"/><text fill="#000000" font-family="sans-serif" font-size="14" lengthAdjust="spacing" textLength="97" x="107.5" y="660.5889">void receive()</text></g><!--reverse link ConcreteColleague1 to Mediator--><g id="link_ConcreteColleague1_Mediator"><path codeLine="14" d="M163.725,335.555 C163.126,350.57 163.094,366.684 163.626,381.82 " fill="none" id="ConcreteColleague1-backto-Mediator" style="stroke:#181818;stroke-width:1.0;"/><polygon fill="none" points="164.434,322.133,160.1231,327.9137,163.8011,334.1163,168.112,328.3356,164.434,322.133" style="stroke:#181818;stroke-width:1.0;"/></g><!--reverse link Mediator to ConcreteColleague1--><g id="link_Mediator_ConcreteColleague1"><path codeLine="34" d="M189.438,368.655 C189.665,352.813 189.268,336.57 188.247,322.133 " fill="none" id="Mediator-backto-ConcreteColleague1" style="stroke:#181818;stroke-width:1.0;"/><polygon fill="none" points="189.101,381.82,193.2533,375.9244,189.4083,369.8239,185.2559,375.7195,189.101,381.82" style="stroke:#181818;stroke-width:1.0;"/></g><!--reverse link Colleague to ConcreteColleague1--><g id="link_Colleague_ConcreteColleague1"><path codeLine="15" d="M207.202,184.296 C202.438,197.761 197.432,211.913 192.858,224.843 " fill="none" id="Colleague-backto-ConcreteColleague1" style="stroke:#181818;stroke-width:1.0;"/><polygon fill="none" points="200.659,181.801,213.928,165.28,213.857,186.47,200.659,181.801" style="stroke:#181818;stroke-width:1.0;"/></g><!--reverse link ConcreteColleague2 to Mediator--><g id="link_ConcreteColleague2_Mediator"><path codeLine="23" d="M188.999,557.398 C189.631,542.394 189.665,526.296 189.101,511.174 " fill="none" id="ConcreteColleague2-backto-Mediator" style="stroke:#181818;stroke-width:1.0;"/><polygon fill="none" points="188.251,570.81,192.5791,565.0422,188.9196,558.8286,184.5915,564.5965,188.251,570.81" style="stroke:#181818;stroke-width:1.0;"/></g><!--reverse link Mediator to ConcreteColleague2--><g id="link_Mediator_ConcreteColleague2"><path codeLine="35" d="M163.308,524.326 C163.094,540.154 163.468,556.381 164.43,570.81 " fill="none" id="Mediator-backto-ConcreteColleague2" style="stroke:#181818;stroke-width:1.0;"/><polygon fill="none" points="163.627,511.174,159.4831,517.0755,163.3369,523.1705,167.4808,517.269,163.627,511.174" style="stroke:#181818;stroke-width:1.0;"/></g><!--reverse link Colleague to ConcreteColleague2--><g id="link_Colleague_ConcreteColleague2"><path codeLine="24" d="M265.942,182.439 C312.626,260.24 379.302,402.481 324,511 C310.878,536.748 288.385,557.775 264.839,574.183 " fill="none" id="Colleague-backto-ConcreteColleague2" style="stroke:#181818;stroke-width:1.0;"/><polygon fill="none" points="259.736,185.713,255.173,165.02,271.644,178.35,259.736,185.713" style="stroke:#181818;stroke-width:1.0;"/></g><!--SRC=[rLAn3e8m5Dpx5IzC6eE97HitPoS_W3pBYo61bhILHVrt9KW5PR1WGjpQr-lTzQwM72Wio9OewK0b6dJQW12CuT4wWzA1pD5QY0fAi_emAT4vCag8zyawHUE4sEay9poTAO8B0rXLEal1aaeNIxyr92chw36vCHOkeAGXHrveqoZ5-oSUalRcL_hJb7KS1tXlBKPiLA3RQv3QWDyVnCrdYvl_MTnyHDpUSXFoPuMGIByUHF0EWjST373qA5O357s6Rgb15RvUeoV_t1bKUNG7]--></g></svg>